<?xml version="1.0" encoding="UTF-8" standalone="no"?>
<!DOCTYPE svg PUBLIC "-//W3C//DTD SVG 1.1//EN"
 "http://www.w3.org/Graphics/SVG/1.1/DTD/svg11.dtd">
<!-- Generated by graphviz version 2.40.1 (20161225.0304)
 -->
<!-- Title: %3 Pages: 1 -->
<svg width="297pt" height="152pt"
 viewBox="0.00 0.00 297.08 152.00" xmlns="http://www.w3.org/2000/svg" xmlns:xlink="http://www.w3.org/1999/xlink">
<g id="graph0" class="graph" transform="scale(1 1) rotate(0) translate(4 148)">
<title>%3</title>
<polygon fill="#ffffff" stroke="transparent" points="-4,4 -4,-148 293.0807,-148 293.0807,4 -4,4"/>
<!-- login -->
<g id="node1" class="node">
<title>login</title>
<ellipse fill="none" stroke="#000000" cx="28.5975" cy="-45" rx="28.6953" ry="18"/>
<text text-anchor="middle" x="28.5975" y="-41.3" font-family="Times,serif" font-size="14.00" fill="#000000">login</text>
</g>
<!-- main -->
<g id="node2" class="node">
<title>main</title>
<ellipse fill="none" stroke="#000000" cx="135.4412" cy="-72" rx="28.6953" ry="18"/>
<text text-anchor="middle" x="135.4412" y="-68.3" font-family="Times,serif" font-size="14.00" fill="#000000">main</text>
</g>
<!-- login&#45;&#45;main -->
<g id="edge1" class="edge">
<title>login&#45;&#45;main</title>
<path fill="none" stroke="#000000" d="M55.283,-51.7436C71.6007,-55.8672 92.4023,-61.1238 108.7255,-65.2488"/>
</g>
<!-- new user -->
<g id="node4" class="node">
<title>new user</title>
<ellipse fill="none" stroke="#000000" cx="135.4412" cy="-18" rx="42.4939" ry="18"/>
<text text-anchor="middle" x="135.4412" y="-14.3" font-family="Times,serif" font-size="14.00" fill="#000000">new user</text>
</g>
<!-- login&#45;&#45;new user -->
<g id="edge3" class="edge">
<title>login&#45;&#45;new user</title>
<path fill="none" stroke="#000000" d="M55.283,-38.2564C68.5102,-34.9138 84.6838,-30.8267 99.0299,-27.2013"/>
</g>
<!-- logout -->
<g id="node3" class="node">
<title>logout</title>
<ellipse fill="none" stroke="#000000" cx="251.3841" cy="-126" rx="33.2948" ry="18"/>
<text text-anchor="middle" x="251.3841" y="-122.3" font-family="Times,serif" font-size="14.00" fill="#000000">logout</text>
</g>
<!-- main&#45;&#45;logout -->
<g id="edge2" class="edge">
<title>main&#45;&#45;logout</title>
<path fill="none" stroke="#000000" d="M158.6253,-82.7979C178.054,-91.8468 205.7552,-104.7485 225.8222,-114.0946"/>
</g>
<!-- settings -->
<g id="node5" class="node">
<title>settings</title>
<ellipse fill="none" stroke="#000000" cx="251.3841" cy="-72" rx="37.8943" ry="18"/>
<text text-anchor="middle" x="251.3841" y="-68.3" font-family="Times,serif" font-size="14.00" fill="#000000">settings</text>
</g>
<!-- main&#45;&#45;settings -->
<g id="edge4" class="edge">
<title>main&#45;&#45;settings</title>
<path fill="none" stroke="#000000" d="M162.6246,-66.1795C178.5545,-65.1152 198.8537,-64.9649 216.0179,-65.7285"/>
</g>
<!-- settings&#45;&#45;main -->
<g id="edge5" class="edge">
<title>settings&#45;&#45;main</title>
<path fill="none" stroke="#000000" d="M216.0179,-78.2715C198.8537,-79.0351 178.5545,-78.8848 162.6246,-77.8205"/>
</g>
</g>
</svg>
